<mxfile host="app.diagrams.net" modified="2023-10-21T14:42:47.456Z" agent="Mozilla/5.0 (Windows NT 10.0; Win64; x64) AppleWebKit/537.36 (KHTML, like Gecko) Chrome/118.0.0.0 Safari/537.36 Edg/118.0.2088.57" etag="5EGFcZ37cTCU05218xx1" version="22.0.6" type="github">
  <diagram name="第 1 页" id="eSo4roDagTOv7NbX58sI">
    <mxGraphModel dx="983" dy="547" grid="1" gridSize="10" guides="1" tooltips="1" connect="1" arrows="1" fold="1" page="1" pageScale="1" pageWidth="827" pageHeight="1169" math="0" shadow="0">
      <root>
        <mxCell id="0" />
        <mxCell id="1" parent="0" />
        <mxCell id="i3CLbu43X5joJ49ZT0Bw-1" value="&lt;p style=&quot;margin-top: 0pt; margin-bottom: 0pt; margin-left: 0in; direction: ltr; unicode-bidi: embed; word-break: normal;&quot;&gt;Food ES supply&lt;/p&gt;" style="rounded=1;whiteSpace=wrap;html=1;fontFamily=Times New Roman;" vertex="1" parent="1">
          <mxGeometry x="207" y="159" width="120" height="30" as="geometry" />
        </mxCell>
        <mxCell id="i3CLbu43X5joJ49ZT0Bw-3" value="&lt;p style=&quot;margin-top: 0pt; margin-bottom: 0pt; margin-left: 0in; direction: ltr; unicode-bidi: embed; word-break: normal;&quot;&gt;Water ES supply&lt;/p&gt;" style="rounded=1;whiteSpace=wrap;html=1;fontFamily=Times New Roman;" vertex="1" parent="1">
          <mxGeometry x="377" y="159" width="120" height="30" as="geometry" />
        </mxCell>
        <mxCell id="i3CLbu43X5joJ49ZT0Bw-4" value="&lt;p style=&quot;margin-top: 0pt; margin-bottom: 0pt; margin-left: 0in; direction: ltr; unicode-bidi: embed; word-break: normal;&quot;&gt;Food ES flow in&lt;/p&gt;" style="rounded=1;whiteSpace=wrap;html=1;fontFamily=Times New Roman;" vertex="1" parent="1">
          <mxGeometry x="292" y="63" width="120" height="30" as="geometry" />
        </mxCell>
        <mxCell id="i3CLbu43X5joJ49ZT0Bw-6" value="&lt;p style=&quot;margin-top: 0pt; margin-bottom: 0pt; margin-left: 0in; direction: ltr; unicode-bidi: embed; word-break: normal;&quot;&gt;Secondary industry&lt;/p&gt;" style="rounded=1;whiteSpace=wrap;html=1;fontFamily=Times New Roman;" vertex="1" parent="1">
          <mxGeometry x="282" y="254" width="120" height="30" as="geometry" />
        </mxCell>
        <mxCell id="i3CLbu43X5joJ49ZT0Bw-7" value="&lt;p style=&quot;margin-top: 0pt; margin-bottom: 0pt; margin-left: 0in; direction: ltr; unicode-bidi: embed; word-break: normal;&quot;&gt;Tertiary industry&lt;/p&gt;" style="rounded=1;whiteSpace=wrap;html=1;fontFamily=Times New Roman;" vertex="1" parent="1">
          <mxGeometry x="454" y="254" width="120" height="30" as="geometry" />
        </mxCell>
        <mxCell id="i3CLbu43X5joJ49ZT0Bw-8" value="&lt;p style=&quot;margin-top: 0pt; margin-bottom: 0pt; margin-left: 0in; direction: ltr; unicode-bidi: embed; word-break: normal;&quot;&gt;Food ES flow out&lt;/p&gt;" style="rounded=1;whiteSpace=wrap;html=1;fontFamily=Times New Roman;" vertex="1" parent="1">
          <mxGeometry x="110" y="350" width="120" height="30" as="geometry" />
        </mxCell>
        <mxCell id="i3CLbu43X5joJ49ZT0Bw-9" value="&lt;p style=&quot;margin-top: 0pt; margin-bottom: 0pt; margin-left: 0in; direction: ltr; unicode-bidi: embed; word-break: normal;&quot;&gt;Soil ES flow out&lt;/p&gt;" style="rounded=1;whiteSpace=wrap;html=1;fontFamily=Times New Roman;" vertex="1" parent="1">
          <mxGeometry x="282" y="350" width="120" height="30" as="geometry" />
        </mxCell>
        <mxCell id="i3CLbu43X5joJ49ZT0Bw-10" value="&lt;p style=&quot;margin-top: 0pt; margin-bottom: 0pt; margin-left: 0in; direction: ltr; unicode-bidi: embed; word-break: normal;&quot;&gt;Water ES flow out&lt;/p&gt;" style="rounded=1;whiteSpace=wrap;html=1;fontFamily=Times New Roman;" vertex="1" parent="1">
          <mxGeometry x="454" y="350" width="120" height="30" as="geometry" />
        </mxCell>
        <mxCell id="i3CLbu43X5joJ49ZT0Bw-5" value="&lt;p style=&quot;margin-top: 0pt; margin-bottom: 0pt; margin-left: 0in; direction: ltr; unicode-bidi: embed; word-break: normal;&quot;&gt;Primary industry&lt;/p&gt;" style="rounded=1;whiteSpace=wrap;html=1;fontFamily=Times New Roman;" vertex="1" parent="1">
          <mxGeometry x="110" y="254" width="120" height="30" as="geometry" />
        </mxCell>
      </root>
    </mxGraphModel>
  </diagram>
</mxfile>
